#!OML:ASF I:\Actors\actors\Patient Classification 2\Patient 1\Session 1\actor1.ASF
:FULLY-SPECIFIED
:DEGREES
271
root -0.677395 18.7053 5.7253 2.60587 -2.34867 -1.53009
lowerback -0.345097 1.21846 -1.03178
upperback -0.512496 1.62291 -1.04875
thorax -0.329317 0.8129 -0.494229
lowerneck -10.6394 -2.68703 -2.80678
upperneck 35.779 -4.23319 2.63619
head 14.1016 -1.87952 0.932123
rclavicle -6.60959e-015 6.36111e-015
rhumerus -23.2728 43.222 -84.7163
rradius 100.555
rwrist 9.45274
rhand -17.8184 -49.7872
rfingers 7.12502
rthumb 8.44562 -79.5983
lclavicle -6.60959e-015 6.36111e-015
lhumerus -29.6725 -24.8632 99.5164
lradius 97.8985
lwrist 72.0882
lhand -17.1398 -13.5594
lfingers 7.12502
lthumb 9.10041 16.2242
rfemur 0 0 0
rtibia 0
rfoot 0 0
rtoes 0
lfemur -4.36761 -8.0271 -13.0971
ltibia 20.9988
lfoot -25.0807 17.1078
ltoes -53.8631
272
root -0.679083 18.7055 5.72105 2.57113 -2.40178 -1.54057
lowerback -0.321107 1.26598 -1.00559
upperback -0.459525 1.68649 -1.10112
thorax -0.286161 0.844335 -0.562189
lowerneck -10.5839 -2.6875 -2.93547
upperneck 35.7074 -4.26937 2.83724
head 14.0672 -1.88684 1.03133
rclavicle 1.53313e-014 7.15625e-015
rhumerus -23.2624 43.8232 -84.8833
rradius 100.343
rwrist 10.6821
rhand -18.4025 -49.4092
rfingers 7.12502
rthumb 7.88191 -79.2423
lclavicle 1.53313e-014 7.15625e-015
lhumerus -29.5744 -25.0069 99.6482
lradius 97.859
lwrist 71.8715
lhand -17.4133 -13.7826
lfingers 7.12502
lthumb 8.83656 16.0124
rfemur 0 0 0
rtibia 0
rfoot 0 0
rtoes 0
lfemur -4.33085 -8.024 -13.0899
ltibia 21.0061
lfoot -25.1123 17.1273
ltoes -53.8469
273
root -0.680437 18.7055 5.71527 2.52191 -2.41835 -1.61313
lowerback -0.284034 1.29737 -0.880962
upperback -0.387999 1.72855 -1.16588
thorax -0.22795 0.864766 -0.697898
lowerneck -10.579 -2.67838 -3.0337
upperneck 35.698 -4.3073 3.05703
head 14.0727 -1.88761 1.13217
rclavicle -3.8266e-015 -1.27222e-014
rhumerus -23.3265 44.3181 -85.2347
rradius 100.048
rwrist 12.2915
rhand -19.2142 -49.2941
rfingers 7.12502
rthumb 7.09837 -79.1551
lclavicle -3.8266e-015 -1.27222e-014
lhumerus -29.4634 -25.1695 99.7095
lradius 97.7881
lwrist 71.4685
lhand -17.6638 -14.234
lfingers 7.12502
lthumb 8.59478 15.5711
rfemur 0 0 0
rtibia 0
rfoot 0 0
rtoes 0
lfemur -4.29111 -7.94984 -13.0032
ltibia 21.0034
lfoot -25.0501 17.1125
ltoes -53.9596
274
root -0.681538 18.7043 5.70964 2.47521 -2.46033 -1.62338
lowerback -0.256797 1.3311 -0.88206
upperback -0.318101 1.77406 -1.21555
thorax -0.169893 0.887339 -0.747638
lowerneck -10.5582 -2.6755 -3.10341
upperneck 35.6804 -4.32887 3.18428
head 14.0666 -1.88988 1.19304
rclavicle 3.10353e-014 -1.66979e-014
rhumerus -23.416 44.6823 -85.603
rradius 99.6779
rwrist 14.2613
rhand -19.5543 -49.4099
rfingers 7.12502
rthumb 6.77006 -79.2817
lclavicle 3.10353e-014 -1.66979e-014
lhumerus -29.3425 -25.2564 99.7885
lradius 97.659
lwrist 71.0339
lhand -18.0298 -14.5978
lfingers 7.12502
lthumb 8.24153 15.2215
rfemur 0 0 0
rtibia 0
rfoot 0 0
rtoes 0
lfemur -4.24582 -7.92581 -12.9964
ltibia 20.9993
lfoot -25.0368 17.1433
ltoes -54.0047
275
root -0.6833 18.7036 5.70364 2.43946 -2.52689 -1.55783
lowerback -0.177938 1.38842 -1.02119
upperback -0.28184 1.84962 -1.26017
thorax -0.179415 0.925301 -0.71697
lowerneck -10.5181 -2.68088 -3.12126
upperneck 35.6314 -4.33844 3.21049
head 14.0369 -1.89336 1.20554
rclavicle 4.72114e-015 6.36111e-015
rhumerus -23.585 44.9301 -85.9665
rradius 99.3017
rwrist 16.0442
rhand -19.9268 -49.6405
rfingers 7.12502
rthumb 6.41052 -79.5235
lclavicle 4.72114e-015 6.36111e-015
lhumerus -29.2682 -25.2843 99.9341
lradius 97.5407
lwrist 70.7681
lhand -18.4794 -14.8308
lfingers 7.12502
lthumb 7.80769 15.005
rfemur 0 0 0
rtibia 0
rfoot 0 0
rtoes 0
lfemur -4.21047 -7.9664 -13.0786
ltibia 20.9973
lfoot -25.0969 17.2004
ltoes -53.9289
276
root -0.685882 18.705 5.69711 2.44116 -2.56184 -1.5493
lowerback -0.122563 1.45068 -1.07031
upperback -0.248848 1.93201 -1.32324
thorax -0.175723 0.966479 -0.755019
lowerneck -10.49 -2.69492 -3.09678
upperneck 35.5445 -4.36284 3.21822
head 13.9914 -1.89998 1.20036
rclavicle 1.70706e-014 -7.95139e-015
rhumerus -23.7514 45.0628 -86.3659
rradius 98.9741
rwrist 17.1563
rhand -20.5164 -49.7094
rfingers 7.12502
rthumb 5.8413 -79.6089
lclavicle 1.70706e-014 -7.95139e-015
lhumerus -29.1723 -25.3553 100.032
lradius 97.4278
lwrist 70.7175
lhand -18.5822 -14.894
lfingers 7.12502
lthumb 7.70842 14.9455
rfemur 0 0 0
rtibia 0
rfoot 0 0
rtoes 0
lfemur -4.22322 -7.96838 -13.0821
ltibia 20.9908
lfoot -25.0947 17.2426
ltoes -53.9467
277
root -0.689398 18.7062 5.69017 2.44866 -2.55596 -1.59652
lowerback -0.0780057 1.4904 -1.09155
upperback -0.201017 1.98486 -1.34225
thorax -0.151508 0.992819 -0.763059
lowerneck -10.4333 -2.73101 -3.16484
upperneck 35.4089 -4.41217 3.27259
head 13.9228 -1.92446 1.22654
rclavicle 1.42628e-014 7.95139e-015
rhumerus -23.863 45.1431 -86.6447
rradius 98.7118
rwrist 18.0624
rhand -20.2013 -49.3139
rfingers 7.12502
rthumb 6.14544 -79.2048
lclavicle 1.42628e-014 7.95139e-015
lhumerus -29.0497 -25.4105 100.129
lradius 97.3053
lwrist 70.7864
lhand -18.3322 -14.8015
lfingers 7.12502
lthumb 7.94976 15.029
rfemur 0 0 0
rtibia 0
rfoot 0 0
rtoes 0
lfemur -4.25214 -7.94199 -13.0101
ltibia 20.9857
lfoot -25.0475 17.2507
ltoes -53.9978
278
root -0.693014 18.7067 5.68314 2.45152 -2.52884 -1.62922
lowerback -0.0222247 1.51419 -1.16067
upperback -0.151746 2.01624 -1.33503
thorax -0.134816 1.00849 -0.717853
lowerneck -10.3675 -2.762 -3.34027
upperneck 35.2699 -4.46934 3.44632
head 13.858 -1.95121 1.31867
rclavicle -1.36664e-015 -2.38542e-015
rhumerus -23.8937 45.1709 -86.7876
rradius 98.4132
rwrist 19.2739
rhand -20.2675 -49.454
rfingers 7.12502
rthumb 6.08161 -79.3467
lclavicle -1.36664e-015 -2.38542e-015
lhumerus -28.9748 -25.4196 100.235
lradius 97.2488
lwrist 70.8764
lhand -18.3532 -14.8137
lfingers 7.12502
lthumb 7.92947 15.0176
rfemur 0 0 0
rtibia 0
rfoot 0 0
rtoes 0
lfemur -4.29369 -7.90619 -12.9489
ltibia 20.9946
lfoot -24.9784 17.2377
ltoes -54.0598
279
root -0.695878 18.7071 5.67704 2.44861 -2.48225 -1.64726
lowerback 0.0237004 1.52459 -1.23174
upperback -0.0946143 2.03006 -1.34826
thorax -0.104012 1.01528 -0.692032
lowerneck -10.3597 -2.76752 -3.38411
upperneck 35.1505 -4.48498 3.51704
head 13.8065 -1.95503 1.3515
rclavicle -3.60297e-015 7.95139e-016
rhumerus -23.9228 45.229 -86.9437
rradius 98.1269
rwrist 20.2278
rhand -20.3233 -49.5504
rfingers 7.12502
rthumb 6.02767 -79.4446
lclavicle -3.60297e-015 7.95139e-016
lhumerus -28.8905 -25.4494 100.287
lradius 97.226
lwrist 70.9203
lhand -18.774 -15.0149
lfingers 7.12502
lthumb 7.5233 14.8313
rfemur 0 0 0
rtibia 0
rfoot 0 0
rtoes 0
lfemur -4.33488 -7.8969 -12.9065
ltibia 21.0122
lfoot -24.9245 17.2028
ltoes -54.1238
280
root -0.698313 18.7073 5.67092 2.4386 -2.41588 -1.66198
lowerback 0.0899879 1.52183 -1.29665
upperback -0.0417887 2.02575 -1.38471
thorax -0.0880295 1.01301 -0.694054
lowerneck -10.4038 -2.78149 -3.25203
upperneck 35.0366 -4.48732 3.38965
head 13.7574 -1.95511 1.27491
rclavicle -2.09966e-014 2.3059e-014
rhumerus -24.0022 45.3738 -87.1219
rradius 97.967
rwrist 20.4754
rhand -20.4952 -49.4725
rfingers 7.12502
rthumb 5.86173 -79.3714
lclavicle -2.09966e-014 2.3059e-014
lhumerus -28.778 -25.5065 100.27
lradius 97.1771
lwrist 70.9997
lhand -19.0849 -14.9862
lfingers 7.12502
lthumb 7.22317 14.8705
rfemur 0 0 0
rtibia 0
rfoot 0 0
rtoes 0
lfemur -4.3658 -7.93903 -12.8718
ltibia 21.0277
lfoot -24.9209 17.1707
ltoes -54.1319
281
root -0.700125 18.7078 5.66473 2.44532 -2.34979 -1.67666
lowerback 0.146543 1.53411 -1.33248
upperback -0.0141902 2.04121 -1.4398
thorax -0.0906699 1.02071 -0.731605
lowerneck -10.4491 -2.83245 -3.2998
upperneck 34.9713 -4.57203 3.46372
head 13.7459 -1.98835 1.29927
rclavicle -1.47101e-014 3.97569e-015
rhumerus -24.0717 45.4632 -87.227
rradius 97.8967
rwrist 20.2746
rhand -20.3734 -49.3578
rfingers 7.12502
rthumb 5.97928 -79.2535
lclavicle -1.47101e-014 3.97569e-015
lhumerus -28.7075 -25.6133 100.272
lradius 97.129
lwrist 71.0494
lhand -19.0875 -14.6353
lfingers 7.12502
lthumb 7.22066 15.2215
rfemur 0 0 0
rtibia 0
rfoot 0 0
rtoes 0
lfemur -4.41879 -7.97103 -12.8393
ltibia 21.0417
lfoot -24.897 17.1836
ltoes -54.2236
282
root -0.701016 18.7087 5.65965 2.47523 -2.29015 -1.70617
lowerback 0.180284 1.55034 -1.35189
upperback -0.0203141 2.06185 -1.46094
thorax -0.115684 1.03111 -0.743585
lowerneck -10.4736 -2.88439 -3.56282
upperneck 34.9564 -4.67836 3.74335
head 13.7666 -2.03248 1.44171
rclavicle 2.94698e-014 -1.11319e-014
rhumerus -24.1778 45.5947 -87.2527
rradius 97.9217
rwrist 19.4648
rhand -20.2982 -49.2968
rfingers 7.12502
rthumb 6.05191 -79.1903
lclavicle 2.94698e-014 -1.11319e-014
lhumerus -28.7087 -25.7164 100.371
lradius 97.0969
lwrist 70.8849
lhand -18.905 -14.4247
lfingers 7.12502
lthumb 7.39689 15.426
rfemur 0 0 0
rtibia 0
rfoot 0 0
rtoes 0
lfemur -4.50095 -7.99211 -12.7914
ltibia 21.0604
lfoot -24.8702 17.1872
ltoes -54.3424
283
root -0.701157 18.7088 5.65602 2.50484 -2.24363 -1.76014
lowerback 0.194716 1.56537 -1.3514
upperback -0.0270855 2.0814 -1.46038
thorax -0.130644 1.04095 -0.743916
lowerneck -10.4931 -2.91855 -3.69167
upperneck 34.9033 -4.74857 3.90235
head 13.7597 -2.05914 1.51707
rclavicle -5.66536e-015 5.56597e-015
rhumerus -24.2846 45.7893 -87.1647
rradius 98.0805
rwrist 17.9569
rhand -20.2416 -49.0458
rfingers 7.12502
rthumb 6.1066 -78.9377
lclavicle -5.66536e-015 5.56597e-015
lhumerus -28.7076 -25.7835 100.456
lradius 97.0456
lwrist 70.7553
lhand -18.7309 -14.4378
lfingers 7.12502
lthumb 7.5649 15.407
rfemur 0 0 0
rtibia 0
rfoot 0 0
rtoes 0
lfemur -4.57221 -8.00531 -12.7184
ltibia 21.0809
lfoot -24.874 17.1444
ltoes -54.3717
